<svg width="529" height="363" viewBox="0 0 529 363" fill="none" xmlns="http://www.w3.org/2000/svg">
<g opacity="0.75">
<path opacity="0.45" d="M70.9742 41.8551H67.4475C66.7171 41.8551 66.125 42.4472 66.125 43.1776V46.7043C66.125 47.4347 66.7171 48.0268 67.4475 48.0268H70.9742C71.7046 48.0268 72.2967 47.4347 72.2967 46.7043V43.1776C72.2967 42.4472 71.7046 41.8551 70.9742 41.8551Z" fill="white"/>
<path opacity="0.35" d="M109.327 68.3052H106.682C106.195 68.3052 105.8 68.6999 105.8 69.1868V71.8318C105.8 72.3188 106.195 72.7135 106.682 72.7135H109.327C109.814 72.7135 110.208 72.3188 110.208 71.8318V69.1868C110.208 68.6999 109.814 68.3052 109.327 68.3052Z" fill="white"/>
<path opacity="0.6" d="M149.883 33.0385H146.357C145.87 33.0385 145.475 33.4332 145.475 33.9201V37.4468C145.475 37.9337 145.87 38.3285 146.357 38.3285H149.883C150.37 38.3285 150.765 37.9337 150.765 37.4468V33.9201C150.765 33.4332 150.37 33.0385 149.883 33.0385Z" fill="white"/>
<path opacity="0.45" d="M242.458 28.6301H238.932C238.445 28.6301 238.05 29.0249 238.05 29.5118V33.0385C238.05 33.5254 238.445 33.9201 238.932 33.9201H242.458C242.945 33.9201 243.34 33.5254 243.34 33.0385V29.5118C243.34 29.0249 242.945 28.6301 242.458 28.6301Z" fill="white"/>
<path opacity="0.4" d="M276.843 55.0801H274.198C273.711 55.0801 273.317 55.4748 273.317 55.9617V58.6067C273.317 59.0937 273.711 59.4884 274.198 59.4884H276.843C277.33 59.4884 277.725 59.0937 277.725 58.6067V55.9617C277.725 55.4748 277.33 55.0801 276.843 55.0801Z" fill="white"/>
<path opacity="0.6" d="M330.625 33.0385H327.098C326.611 33.0385 326.217 33.4332 326.217 33.9201V37.4468C326.217 37.9337 326.611 38.3285 327.098 38.3285H330.625C331.112 38.3285 331.507 37.9337 331.507 37.4468V33.9201C331.507 33.4332 331.112 33.0385 330.625 33.0385Z" fill="white"/>
<path opacity="0.45" d="M432.017 46.2634H428.49C428.003 46.2634 427.608 46.6582 427.608 47.1451V50.6718C427.608 51.1587 428.003 51.5534 428.49 51.5534H432.017C432.504 51.5534 432.898 51.1587 432.898 50.6718V47.1451C432.898 46.6582 432.504 46.2634 432.017 46.2634Z" fill="white"/>
<path opacity="0.35" d="M470.81 72.7134H468.165C467.678 72.7134 467.283 73.1081 467.283 73.595V76.24C467.283 76.727 467.678 77.1217 468.165 77.1217H470.81C471.297 77.1217 471.692 76.727 471.692 76.24V73.595C471.692 73.1081 471.297 72.7134 470.81 72.7134Z" fill="white"/>
<path opacity="0.35" d="M79.9154 109.097C64.5247 94.7645 81.8748 82.5877 93.2277 94.4228" stroke="white" stroke-width="4.40833" stroke-linecap="round" stroke-linejoin="round"/>
<path opacity="0.35" d="M246.867 72.7134C255.683 56.8434 271.553 69.1868 264.5 82.4118" stroke="white" stroke-width="4.40833" stroke-linecap="round" stroke-linejoin="round"/>
<path opacity="0.35" d="M401.158 81.53C390.578 67.4233 378.235 77.1217 385.288 90.3467" stroke="white" stroke-width="4.40833" stroke-linecap="round" stroke-linejoin="round"/>
<path opacity="0.35" d="M449.65 94.7551C459.348 78.0034 474.337 91.2284 467.283 104.453" stroke="white" stroke-width="4.40833" stroke-linecap="round" stroke-linejoin="round"/>
</g>
<path opacity="0.18" d="M160.699 162.477L71.7458 175.693C67.411 176.337 64.4191 180.373 65.0631 184.708L79.5747 282.383C80.2187 286.718 84.2548 289.71 88.5896 289.066L177.543 275.85C181.878 275.206 184.87 271.169 184.226 266.835L169.714 169.16C169.07 164.825 165.034 161.833 160.699 162.477Z" fill="white" stroke="white" stroke-width="3.52667"/>
<path opacity="0.38" d="M164.213 144.128L63.0498 159.158C59.1966 159.731 56.5371 163.318 57.1095 167.172L59.1826 181.125C59.7551 184.978 63.3428 187.638 67.1959 187.065L168.359 172.035C172.212 171.463 174.872 167.875 174.299 164.022L172.226 150.069C171.654 146.215 168.066 143.556 164.213 144.128Z" fill="white" stroke="white" stroke-width="3.52667"/>
<path opacity="0.6" d="M122.233 173.541C121.803 170.651 119.112 168.656 116.223 169.085C113.333 169.515 111.338 172.205 111.767 175.095L127.056 278.002C127.486 280.892 130.176 282.887 133.066 282.458C135.956 282.028 137.951 279.338 137.522 276.448L122.233 173.541Z" fill="white"/>
<g opacity="0.85">
<path opacity="0.75" d="M92.1578 169.095C105.162 167.163 114.776 159.35 113.631 151.643C112.486 143.937 101.016 139.256 88.0116 141.188C75.0072 143.12 65.3932 150.934 66.5382 158.64C67.6831 166.346 79.1534 171.027 92.1578 169.095Z" fill="white" stroke="white" stroke-width="3.52667" stroke-linejoin="round"/>
<path opacity="0.75" d="M139.251 162.099C152.255 160.167 161.869 152.353 160.724 144.647C159.579 136.94 148.109 132.26 135.105 134.192C122.1 136.124 112.486 143.937 113.631 151.643C114.776 159.35 126.246 164.031 139.251 162.099Z" fill="white" stroke="white" stroke-width="3.52667" stroke-linejoin="round"/>
<path opacity="0.95" d="M115.445 163.853C119.298 163.28 121.958 159.693 121.385 155.839C120.813 151.986 117.225 149.327 113.372 149.899C109.519 150.472 106.859 154.059 107.432 157.913C108.004 161.766 111.592 164.425 115.445 163.853Z" fill="white" stroke="white" stroke-width="3.52667" stroke-linejoin="round"/>
</g>
<mask id="mask0_72_1398" style="mask-type:luminance" maskUnits="userSpaceOnUse" x="64" y="162" width="121" height="128">
<path d="M160.699 162.477L71.7458 175.693C67.411 176.337 64.4191 180.373 65.0631 184.708L79.5747 282.383C80.2187 286.718 84.2548 289.71 88.5896 289.066L177.543 275.85C181.878 275.206 184.87 271.169 184.226 266.835L169.714 169.16C169.07 164.825 165.034 161.833 160.699 162.477Z" fill="white"/>
</mask>
<g mask="url(#mask0_72_1398)">
<g opacity="0.25">
<path d="M68.3072 296.535L107.502 170.381Z" fill="black"/>
<path d="M68.3072 296.535L107.502 170.381" stroke="white" stroke-width="6.17167"/>
<path d="M85.7491 293.944L124.944 167.79Z" fill="black"/>
<path d="M85.7491 293.944L124.944 167.79" stroke="white" stroke-width="6.17167"/>
<path d="M103.191 291.353L142.385 165.198Z" fill="black"/>
<path d="M103.191 291.353L142.385 165.198" stroke="white" stroke-width="6.17167"/>
<path d="M120.633 288.761L159.827 162.607Z" fill="black"/>
<path d="M120.633 288.761L159.827 162.607" stroke="white" stroke-width="6.17167"/>
<path d="M138.075 286.17L177.269 160.015Z" fill="black"/>
<path d="M138.075 286.17L177.269 160.015" stroke="white" stroke-width="6.17167"/>
</g>
</g>
<path opacity="0.22" d="M334.152 132.388H221.298C215.942 132.388 211.6 136.731 211.6 142.087V263.757C211.6 269.113 215.942 273.455 221.298 273.455H334.152C339.508 273.455 343.85 269.113 343.85 263.757V142.087C343.85 136.731 339.508 132.388 334.152 132.388Z" fill="white" stroke="white" stroke-width="3.52667"/>
<path opacity="0.42" d="M341.205 111.228H214.245C209.863 111.228 206.31 114.781 206.31 119.163V132.388C206.31 136.771 209.863 140.323 214.245 140.323H341.205C345.587 140.323 349.14 136.771 349.14 132.388V119.163C349.14 114.781 345.587 111.228 341.205 111.228Z" fill="white" stroke="white" stroke-width="3.52667"/>
<path opacity="0.5" d="M337.678 194.105H217.772C214.363 194.105 211.6 196.868 211.6 200.277C211.6 203.685 214.363 206.448 217.772 206.448H337.678C341.087 206.448 343.85 203.685 343.85 200.277C343.85 196.868 341.087 194.105 337.678 194.105Z" fill="white"/>
<path opacity="0.6" d="M286.542 138.56C286.542 135.152 283.779 132.388 280.37 132.388C276.962 132.388 274.198 135.152 274.198 138.56V267.283C274.198 270.692 276.962 273.455 280.37 273.455C283.779 273.455 286.542 270.692 286.542 267.283V138.56Z" fill="white"/>
<g opacity="0.9">
<path opacity="0.8" d="M255.683 127.098C270.291 127.098 282.133 119.993 282.133 111.228C282.133 102.464 270.291 95.3584 255.683 95.3584C241.075 95.3584 229.233 102.464 229.233 111.228C229.233 119.993 241.075 127.098 255.683 127.098Z" fill="white" stroke="white" stroke-width="3.52667" stroke-linejoin="round"/>
<path opacity="0.8" d="M308.583 127.098C323.191 127.098 335.033 119.993 335.033 111.228C335.033 102.464 323.191 95.3584 308.583 95.3584C293.975 95.3584 282.133 102.464 282.133 111.228C282.133 119.993 293.975 127.098 308.583 127.098Z" fill="white" stroke="white" stroke-width="3.52667" stroke-linejoin="round"/>
<path opacity="0.95" d="M282.133 127.098C286.516 127.098 290.068 123.546 290.068 119.163C290.068 114.781 286.516 111.228 282.133 111.228C277.751 111.228 274.198 114.781 274.198 119.163C274.198 123.546 277.751 127.098 282.133 127.098Z" fill="white" stroke="white" stroke-width="3.52667" stroke-linejoin="round"/>
</g>
<mask id="mask1_72_1398" style="mask-type:luminance" maskUnits="userSpaceOnUse" x="211" y="132" width="133" height="142">
<path d="M334.152 132.388H221.298C215.942 132.388 211.6 136.731 211.6 142.087V263.757C211.6 269.113 215.942 273.455 221.298 273.455H334.152C339.508 273.455 343.85 269.113 343.85 263.757V142.087C343.85 136.731 339.508 132.388 334.152 132.388Z" fill="white"/>
</mask>
<g mask="url(#mask1_72_1398)">
<g opacity="0.55">
<path d="M229.233 158.838L232.76 166.773L241.577 167.655L234.523 172.945L237.168 181.762L229.233 177.353L221.298 181.762L223.943 172.945L216.89 167.655L225.707 166.773L229.233 158.838Z" fill="white"/>
<path opacity="0.6" d="M317.4 150.022L320.486 155.312L326.658 156.193L321.808 159.72L323.572 165.892L318.282 162.806L312.992 165.892L314.755 159.72L309.906 156.193L316.078 155.312L317.4 150.022Z" fill="white"/>
<path opacity="0.5" d="M298.003 229.372L300.648 234.662L306.82 235.543L301.971 239.07L303.734 245.242L298.444 242.156L293.154 245.242L294.918 239.07L290.068 235.543L296.24 234.662L298.003 229.372Z" fill="white"/>
<path opacity="0.5" d="M246.867 220.555L249.512 225.845L255.683 226.727L250.834 230.253L252.597 236.425L247.307 233.339L242.017 236.425L243.781 230.253L238.932 226.727L245.103 225.845L246.867 220.555Z" fill="white"/>
</g>
</g>
<path opacity="0.18" d="M472.736 172.631L392.062 164.204C387.703 163.748 383.8 166.913 383.345 171.271L373.086 269.484C372.63 273.842 375.795 277.745 380.153 278.2L460.828 286.628C465.186 287.083 469.089 283.919 469.544 279.56L479.804 181.348C480.259 176.989 477.095 173.086 472.736 172.631Z" fill="white" stroke="white" stroke-width="3.52667"/>
<path opacity="0.38" d="M480.706 155.735L387.755 146.025C383.881 145.62 380.412 148.433 380.007 152.307L378.542 166.337C378.137 170.212 380.95 173.681 384.824 174.085L477.775 183.795C481.649 184.2 485.118 181.387 485.523 177.513L486.989 163.483C487.393 159.608 484.581 156.139 480.706 155.735Z" fill="white" stroke="white" stroke-width="3.52667"/>
<path opacity="0.6" d="M438.033 173.882C438.312 171.218 436.378 168.833 433.714 168.555C431.051 168.277 428.666 170.21 428.387 172.874L417.487 277.224C417.209 279.888 419.142 282.273 421.806 282.551C424.47 282.829 426.854 280.896 427.133 278.232L438.033 173.882Z" fill="white"/>
<g opacity="0.85">
<path opacity="0.75" d="M410.058 161.651C422.165 162.916 432.595 158.052 433.354 150.788C434.113 143.524 424.913 136.609 412.806 135.344C400.698 134.08 390.268 138.943 389.509 146.208C388.75 153.472 397.95 160.387 410.058 161.651Z" fill="white" stroke="white" stroke-width="3.52667" stroke-linejoin="round"/>
<path opacity="0.75" d="M455.656 166.415C467.764 167.68 478.194 162.816 478.953 155.551C479.711 148.287 470.512 141.373 458.404 140.108C446.297 138.843 435.867 143.707 435.108 150.971C434.349 158.236 443.549 165.15 455.656 166.415Z" fill="white" stroke="white" stroke-width="3.52667" stroke-linejoin="round"/>
<path opacity="0.95" d="M432.994 162.718C436.626 163.097 439.878 160.46 440.258 156.828C440.637 153.196 438 149.944 434.368 149.564C430.736 149.185 427.484 151.822 427.104 155.454C426.725 159.086 429.362 162.338 432.994 162.718Z" fill="white" stroke="white" stroke-width="3.52667" stroke-linejoin="round"/>
</g>
<mask id="mask2_72_1398" style="mask-type:luminance" maskUnits="userSpaceOnUse" x="373" y="164" width="107" height="123">
<path d="M472.736 172.631L392.062 164.204C387.703 163.748 383.8 166.913 383.345 171.271L373.086 269.484C372.63 273.842 375.795 277.745 380.153 278.2L460.828 286.628C465.186 287.083 469.089 283.919 469.544 279.56L479.804 181.348C480.259 176.989 477.095 173.086 472.736 172.631Z" fill="white"/>
</mask>
<g mask="url(#mask2_72_1398)">
<g opacity="0.22">
<path d="M377.037 189.228C401.787 206.883 422.439 178.901 447.189 196.556C463.536 209.788 468.378 205.861 482.173 201.097" stroke="white" stroke-width="5.29" stroke-linecap="round" stroke-linejoin="round"/>
<path d="M373.831 219.919C398.581 237.575 419.233 209.592 443.983 227.247C460.33 240.479 465.172 236.553 478.967 231.788" stroke="white" stroke-width="5.29" stroke-linecap="round" stroke-linejoin="round"/>
<path d="M370.625 250.611C395.375 268.266 416.027 240.284 440.777 257.939C457.124 271.17 461.966 267.244 475.761 262.48" stroke="white" stroke-width="5.29" stroke-linecap="round" stroke-linejoin="round"/>
</g>
</g>
<g opacity="0.55">
<path d="M105.8 301.088H102.273C101.786 301.088 101.392 301.483 101.392 301.97V305.497C101.392 305.984 101.786 306.378 102.273 306.378H105.8C106.287 306.378 106.682 305.984 106.682 305.497V301.97C106.682 301.483 106.287 301.088 105.8 301.088Z" fill="white"/>
<path d="M157.818 314.313H155.173C154.686 314.313 154.292 314.708 154.292 315.195V317.84C154.292 318.327 154.686 318.722 155.173 318.722H157.818C158.305 318.722 158.7 318.327 158.7 317.84V315.195C158.7 314.708 158.305 314.313 157.818 314.313Z" fill="white"/>
<path d="M365.892 301.088H362.365C361.878 301.088 361.483 301.483 361.483 301.97V305.497C361.483 305.984 361.878 306.378 362.365 306.378H365.892C366.379 306.378 366.773 305.984 366.773 305.497V301.97C366.773 301.483 366.379 301.088 365.892 301.088Z" fill="white"/>
<path d="M457.585 314.313H454.94C454.453 314.313 454.058 314.708 454.058 315.195V317.84C454.058 318.327 454.453 318.722 454.94 318.722H457.585C458.072 318.722 458.467 318.327 458.467 317.84V315.195C458.467 314.708 458.072 314.313 457.585 314.313Z" fill="white"/>
</g>
<path d="M311.422 21.4179C336.633 14.3362 360.817 15.0982 383.975 23.7037C407.132 32.3093 426.023 44.7047 440.648 60.89C455.272 77.0753 469.566 93.3991 483.529 109.861C497.491 126.324 506.314 144.337 509.997 163.901C513.68 183.464 515.371 203.462 515.069 223.892C514.767 244.323 506.928 262.766 491.553 279.222C476.177 295.678 459.776 310.693 442.349 324.267C424.922 337.841 404.41 346.696 380.813 350.831C357.217 354.966 334.42 357.23 312.424 357.622C290.427 358.015 268.431 358.408 246.434 358.8C224.438 359.193 201.575 357.744 177.846 354.454C154.117 351.164 131.488 344.141 109.959 333.384C88.4301 322.627 72.1675 308.063 61.1711 289.691C50.1748 271.318 41.8305 252.103 36.1382 232.045C30.4459 211.986 30.0861 191.833 35.0588 171.584C40.0315 151.335 52.5669 134.532 72.665 121.175C92.7631 107.819 109.512 93.5933 122.911 78.4993C136.311 63.4053 151.876 48.2726 169.608 33.1013C187.34 17.9299 209.106 13.9603 234.906 21.1923C260.706 28.4244 286.211 28.4996 311.422 21.4179Z" fill="white" fill-opacity="0.2"/>
</svg>
