<svg width="476" height="456" viewBox="0 0 476 456" fill="none" xmlns="http://www.w3.org/2000/svg">
<path d="M443.354 298.574C412.328 335.434 382.397 369.788 353.562 401.637C324.726 433.487 286.765 451.38 239.679 455.316C192.593 459.253 151.165 446.191 115.394 416.131C79.6231 386.071 52.795 349.748 34.9096 307.163C17.0242 264.578 10.0891 216.982 14.1041 164.377C18.1192 111.772 45.8599 77.9541 97.326 62.9241C148.792 47.894 198.616 35.0111 246.797 24.2753C294.978 13.5395 340.239 23.0228 382.58 52.7251C424.921 82.4274 453.391 121.613 467.992 170.282C482.592 218.951 474.38 261.715 443.354 298.574Z" fill="white" fill-opacity="0.2"/>
<g clip-path="url(#clip0_78_2523)">
<path opacity="0.06" d="M231.897 306.308C343.581 306.308 434.119 276.129 434.119 238.901C434.119 201.673 343.581 171.493 231.897 171.493C120.213 171.493 29.6747 201.673 29.6747 238.901C29.6747 276.129 120.213 306.308 231.897 306.308Z" fill="white"/>
<path opacity="0.04" d="M229.257 317.864C333.639 317.864 418.257 272.421 418.257 216.364C418.257 160.307 333.639 114.864 229.257 114.864C124.875 114.864 40.2568 160.307 40.2568 216.364C40.2568 272.421 124.875 317.864 229.257 317.864Z" fill="white"/>
<path opacity="0.28" d="M71.3433 40.3823C88.5211 11.1725 115.242 34.7651 99.0187 57.2342" stroke="white" stroke-width="6.74074" stroke-linecap="round"/>
<path opacity="0.35" d="M6.5513 47.9132H3.68832C2.89773 47.9132 2.25684 48.6677 2.25684 49.5984V52.9688C2.25684 53.8995 2.89773 54.6539 3.68832 54.6539H6.5513C7.34189 54.6539 7.98279 53.8995 7.98279 52.9688V49.5984C7.98279 48.6677 7.34189 47.9132 6.5513 47.9132Z" fill="white" stroke="white" stroke-width="0.561728" stroke-linecap="round"/>
<path opacity="0.28" d="M53.3133 92.8515H51.4046C50.614 92.8515 49.9731 93.606 49.9731 94.5367V96.7836C49.9731 97.7143 50.614 98.4688 51.4046 98.4688H53.3133C54.1039 98.4688 54.7448 97.7143 54.7448 96.7836V94.5367C54.7448 93.606 54.1039 92.8515 53.3133 92.8515Z" fill="white" stroke="white" stroke-width="0.561728" stroke-linecap="round"/>
<path opacity="0.22" d="M39.9527 25.4441H37.0897C36.2991 25.4441 35.6582 26.1986 35.6582 27.1293V30.4996C35.6582 31.4303 36.2991 32.1848 37.0897 32.1848H39.9527C40.7433 32.1848 41.3842 31.4303 41.3842 30.4996V27.1293C41.3842 26.1986 40.7433 25.4441 39.9527 25.4441Z" fill="white" stroke="white" stroke-width="0.561728" stroke-linecap="round"/>
<path opacity="0.42" d="M234.158 1.85147L239.884 17.5799L255.153 18.7033L243.701 28.8144L247.518 45.6663L234.158 36.6786L220.797 45.6663L224.614 28.8144L213.163 18.7033L228.432 17.5799L234.158 1.85147Z" fill="white" stroke="white" stroke-width="0.561728" stroke-linecap="round"/>
<path opacity="0.28" d="M441.246 70.3823C424.068 41.1725 397.347 64.7651 413.571 87.2342" stroke="white" stroke-width="6.74074" stroke-linecap="round"/>
<path opacity="0.35" d="M435.998 36.6786H433.135C432.344 36.6786 431.703 37.4331 431.703 38.3638V41.7342C431.703 42.6649 432.344 43.4194 433.135 43.4194H435.998C436.788 43.4194 437.429 42.6649 437.429 41.7342V38.3638C437.429 37.4331 436.788 36.6786 435.998 36.6786Z" fill="white" stroke="white" stroke-width="0.561728" stroke-linecap="round"/>
<path opacity="0.28" d="M382.555 92.8515H380.647C379.856 92.8515 379.215 93.606 379.215 94.5367V96.7836C379.215 97.7143 379.856 98.4688 380.647 98.4688H382.555C383.346 98.4688 383.987 97.7143 383.987 96.7836V94.5367C383.987 93.606 383.346 92.8515 382.555 92.8515Z" fill="white" stroke="white" stroke-width="0.561728" stroke-linecap="round"/>
<path opacity="0.22" d="M407.368 19.8268H404.505C403.714 19.8268 403.073 20.5813 403.073 21.512V24.8823C403.073 25.813 403.714 26.5675 404.505 26.5675H407.368C408.158 26.5675 408.799 25.813 408.799 24.8823V21.512C408.799 20.5813 408.158 19.8268 407.368 19.8268Z" fill="white" stroke="white" stroke-width="0.561728" stroke-linecap="round"/>
<path opacity="0.3" d="M130.136 36.6786H127.273C126.746 36.6786 126.319 37.1816 126.319 37.8021V41.1725C126.319 41.7929 126.746 42.2959 127.273 42.2959H130.136C130.663 42.2959 131.091 41.7929 131.091 41.1725V37.8021C131.091 37.1816 130.663 36.6786 130.136 36.6786Z" fill="white" stroke="white" stroke-width="0.561728" stroke-linecap="round"/>
<path opacity="0.3" d="M340.088 36.6786H337.225C336.698 36.6786 336.271 37.1816 336.271 37.8021V41.1725C336.271 41.7929 336.698 42.2959 337.225 42.2959H340.088C340.615 42.2959 341.042 41.7929 341.042 41.1725V37.8021C341.042 37.1816 340.615 36.6786 340.088 36.6786Z" fill="white" stroke="white" stroke-width="0.561728" stroke-linecap="round"/>
<path opacity="0.26" d="M188.35 64.7651H184.533C184.006 64.7651 183.579 65.2681 183.579 65.8885V70.3824C183.579 71.0028 184.006 71.5058 184.533 71.5058H188.35C188.877 71.5058 189.305 71.0028 189.305 70.3824V65.8885C189.305 65.2681 188.877 64.7651 188.35 64.7651Z" fill="white" stroke="white" stroke-width="0.561728" stroke-linecap="round"/>
<path opacity="0.26" d="M283.783 64.7651H279.965C279.438 64.7651 279.011 65.2681 279.011 65.8885V70.3824C279.011 71.0028 279.438 71.5058 279.965 71.5058H283.783C284.31 71.5058 284.737 71.0028 284.737 70.3824V65.8885C284.737 65.2681 284.31 64.7651 283.783 64.7651Z" fill="white" stroke="white" stroke-width="0.561728" stroke-linecap="round"/>
<path opacity="0.4" d="M342 165H134C125.163 165 118 172.163 118 181V359C118 367.837 125.163 375 134 375H342C350.837 375 358 367.837 358 359V181C358 172.163 350.837 165 342 165Z" fill="white"/>
<path opacity="0.78" d="M364 130H112C104.268 130 98 136.268 98 144V171C98 178.732 104.268 185 112 185H364C371.732 185 378 178.732 378 171V144C378 136.268 371.732 130 364 130Z" fill="white"/>
<path opacity="0.8" d="M247 130H229C225.686 130 223 132.686 223 136V369C223 372.314 225.686 375 229 375H247C250.314 375 253 372.314 253 369V136C253 132.686 250.314 130 247 130Z" fill="white"/>
<path opacity="0.8" d="M350 210H126C121.582 210 118 213.582 118 218V242C118 246.418 121.582 250 126 250H350C354.418 250 358 246.418 358 242V218C358 213.582 354.418 210 350 210Z" fill="white"/>
<path opacity="0.8" d="M238 141C246.837 141 254 133.837 254 125C254 116.163 246.837 109 238 109C229.163 109 222 116.163 222 125C222 133.837 229.163 141 238 141Z" fill="white"/>
<path opacity="0.8" d="M238 125C208 85 158 80 163 115C170 145 213 155 238 125Z" fill="white"/>
<path opacity="0.8" d="M238 125C268 85 318 80 313 115C306 145 263 155 238 125Z" fill="white"/>
<path opacity="0.1" d="M218 185H138V355H218V185Z" fill="white"/>
<path opacity="0.4" d="M60.4178 161.69L50.7585 159.102L45.5822 178.421L55.2414 181.009L60.4178 161.69Z" fill="white"/>
<path opacity="0.4" d="M384.665 139L375.155 142.09L381.335 161.111L390.845 158.021L384.665 139Z" fill="white"/>
<path opacity="0.35" d="M38 260.056L53 235.056L68 260.056H38Z" fill="white"/>
<path opacity="0.35" d="M428 230.056L413 205.056L398 230.056H428Z" fill="white"/>
<path opacity="0.45" d="M98 206.056C101.314 206.056 104 203.369 104 200.056C104 196.742 101.314 194.056 98 194.056C94.6863 194.056 92 196.742 92 200.056C92 203.369 94.6863 206.056 98 206.056Z" fill="white"/>
<path opacity="0.45" d="M443 196.056C446.314 196.056 449 193.369 449 190.056C449 186.742 446.314 184.056 443 184.056C439.686 184.056 437 186.742 437 190.056C437 193.369 439.686 196.056 443 196.056Z" fill="white"/>
<path opacity="0.32" d="M360.33 263.627L352.536 259.127L343.536 274.716L351.33 279.216L360.33 263.627Z" fill="white"/>
<path opacity="0.32" d="M93.2645 253.838L84.9198 257.209L91.6627 273.899L100.007 270.527L93.2645 253.838Z" fill="white"/>
</g>
<defs>
<clipPath id="clip0_78_2523">
<rect width="444" height="364" fill="white" transform="translate(1.25684 0.864014)"/>
</clipPath>
</defs>
</svg>
