<svg width="521" height="410" viewBox="0 0 521 410" fill="none" xmlns="http://www.w3.org/2000/svg">
<path d="M301.422 41.4179C326.633 34.3362 350.817 35.0981 373.975 43.7037C397.132 52.3093 416.023 64.7047 430.648 80.89C445.272 97.0753 459.566 113.399 473.529 129.861C487.491 146.324 496.314 164.337 499.997 183.901C503.68 203.464 505.371 223.462 505.069 243.892C504.767 264.323 496.928 282.766 481.553 299.222C466.177 315.678 449.776 330.693 432.349 344.267C414.922 357.841 394.41 366.696 370.813 370.831C347.217 374.966 324.42 377.23 302.424 377.622C280.427 378.015 258.431 378.408 236.434 378.8C214.438 379.193 191.575 377.744 167.846 374.454C144.117 371.164 121.488 364.141 99.9588 353.384C78.4301 342.627 62.1675 328.063 51.1711 309.691C40.1748 291.318 31.8305 272.103 26.1382 252.045C20.4459 231.986 20.0861 211.833 25.0588 191.584C30.0315 171.335 42.5669 154.532 62.665 141.175C82.7631 127.819 99.5119 113.593 112.911 98.4993C126.311 83.4053 141.876 68.2726 159.608 53.1013C177.34 37.9299 199.106 33.9603 224.906 41.1923C250.706 48.4244 276.211 48.4996 301.422 41.4179Z" fill="white" fill-opacity="0.2"/>
<g opacity="0.75">
<path opacity="0.45" d="M70.9742 61.8551H67.4475C66.7171 61.8551 66.125 62.4472 66.125 63.1776V66.7043C66.125 67.4347 66.7171 68.0268 67.4475 68.0268H70.9742C71.7046 68.0268 72.2967 67.4347 72.2967 66.7043V63.1776C72.2967 62.4472 71.7046 61.8551 70.9742 61.8551Z" fill="white"/>
<path opacity="0.35" d="M109.327 88.3052H106.682C106.195 88.3052 105.8 88.6999 105.8 89.1868V91.8318C105.8 92.3188 106.195 92.7135 106.682 92.7135H109.327C109.814 92.7135 110.208 92.3188 110.208 91.8318V89.1868C110.208 88.6999 109.814 88.3052 109.327 88.3052Z" fill="white"/>
<path opacity="0.6" d="M149.883 53.0385H146.357C145.87 53.0385 145.475 53.4332 145.475 53.9201V57.4468C145.475 57.9337 145.87 58.3285 146.357 58.3285H149.883C150.37 58.3285 150.765 57.9337 150.765 57.4468V53.9201C150.765 53.4332 150.37 53.0385 149.883 53.0385Z" fill="white"/>
<path opacity="0.45" d="M242.458 48.6301H238.932C238.445 48.6301 238.05 49.0249 238.05 49.5118V53.0385C238.05 53.5254 238.445 53.9201 238.932 53.9201H242.458C242.945 53.9201 243.34 53.5254 243.34 53.0385V49.5118C243.34 49.0249 242.945 48.6301 242.458 48.6301Z" fill="white"/>
<path opacity="0.4" d="M276.843 75.0801H274.198C273.711 75.0801 273.317 75.4748 273.317 75.9617V78.6067C273.317 79.0937 273.711 79.4884 274.198 79.4884H276.843C277.33 79.4884 277.725 79.0937 277.725 78.6067V75.9617C277.725 75.4748 277.33 75.0801 276.843 75.0801Z" fill="white"/>
<path opacity="0.6" d="M330.625 53.0385H327.098C326.611 53.0385 326.217 53.4332 326.217 53.9201V57.4468C326.217 57.9337 326.611 58.3285 327.098 58.3285H330.625C331.112 58.3285 331.507 57.9337 331.507 57.4468V53.9201C331.507 53.4332 331.112 53.0385 330.625 53.0385Z" fill="white"/>
<path opacity="0.45" d="M432.017 66.2634H428.49C428.003 66.2634 427.608 66.6582 427.608 67.1451V70.6718C427.608 71.1587 428.003 71.5534 428.49 71.5534H432.017C432.504 71.5534 432.898 71.1587 432.898 70.6718V67.1451C432.898 66.6582 432.504 66.2634 432.017 66.2634Z" fill="white"/>
<path opacity="0.35" d="M470.81 92.7135H468.165C467.678 92.7135 467.283 93.1082 467.283 93.5952V96.2402C467.283 96.7271 467.678 97.1218 468.165 97.1218H470.81C471.297 97.1218 471.692 96.7271 471.692 96.2402V93.5952C471.692 93.1082 471.297 92.7135 470.81 92.7135Z" fill="white"/>
<path opacity="0.35" d="M79.9154 129.097C64.5247 114.764 81.8748 102.588 93.2277 114.423" stroke="white" stroke-width="4.40833" stroke-linecap="round" stroke-linejoin="round"/>
<path opacity="0.35" d="M246.867 92.7134C255.683 76.8434 271.553 89.1868 264.5 102.412" stroke="white" stroke-width="4.40833" stroke-linecap="round" stroke-linejoin="round"/>
<path opacity="0.35" d="M401.158 101.53C390.578 87.4235 378.235 97.1218 385.288 110.347" stroke="white" stroke-width="4.40833" stroke-linecap="round" stroke-linejoin="round"/>
<path opacity="0.35" d="M449.65 114.755C459.348 98.0035 474.337 111.229 467.283 124.454" stroke="white" stroke-width="4.40833" stroke-linecap="round" stroke-linejoin="round"/>
<g opacity="0.55">
<path d="M91.8001 311.088H88.2734C87.7865 311.088 87.3917 311.483 87.3917 311.97V315.497C87.3917 315.984 87.7865 316.378 88.2734 316.378H91.8001C92.287 316.378 92.6817 315.984 92.6817 315.497V311.97C92.6817 311.483 92.287 311.088 91.8001 311.088Z" fill="white"/>
<path d="M143.818 324.313H141.173C140.686 324.313 140.292 324.708 140.292 325.195V327.84C140.292 328.327 140.686 328.722 141.173 328.722H143.818C144.305 328.722 144.7 328.327 144.7 327.84V325.195C144.7 324.708 144.305 324.313 143.818 324.313Z" fill="white"/>
<path d="M351.892 311.088H348.365C347.878 311.088 347.483 311.483 347.483 311.97V315.497C347.483 315.984 347.878 316.378 348.365 316.378H351.892C352.379 316.378 352.773 315.984 352.773 315.497V311.97C352.773 311.483 352.379 311.088 351.892 311.088Z" fill="white"/>
<path d="M443.585 324.313H440.94C440.453 324.313 440.058 324.708 440.058 325.195V327.84C440.058 328.327 440.453 328.722 440.94 328.722H443.585C444.072 328.722 444.467 328.327 444.467 327.84V325.195C444.467 324.708 444.072 324.313 443.585 324.313Z" fill="white"/>
</g>
</g>
<g clip-path="url(#clip0_73_2130)">
<path opacity="0.06" d="M431.226 215.704H101.424C87.2917 215.704 75.8354 229.556 75.8354 246.642C75.8354 263.729 87.2917 277.58 101.424 277.58H431.226C445.358 277.58 456.814 263.729 456.814 246.642C456.814 229.556 445.358 215.704 431.226 215.704Z" fill="white"/>
<path opacity="0.04" d="M432.356 212.169H99.4097C83.4609 212.169 70.5317 227.801 70.5317 247.084C70.5317 266.368 83.4609 282 99.4097 282H432.356C448.305 282 461.234 266.368 461.234 247.084C461.234 227.801 448.305 212.169 432.356 212.169Z" fill="white"/>
<path opacity="0.14" d="M431.448 219.24H102.086C89.5409 219.24 79.3712 231.508 79.3712 246.642C79.3712 261.776 89.5409 274.045 102.086 274.045H431.448C443.993 274.045 454.163 261.776 454.163 246.642C454.163 231.508 443.993 219.24 431.448 219.24Z" fill="white"/>
<path opacity="0.18" d="M394.744 233.383H141.442C133.523 233.383 127.104 239.715 127.104 247.526C127.104 255.337 133.523 261.669 141.442 261.669H394.744C402.662 261.669 409.082 255.337 409.082 247.526C409.082 239.715 402.662 233.383 394.744 233.383Z" fill="white"/>
<path d="M147.483 246.392L146.624 251.613H145.291L147.212 240.041H148.546L147.845 244.29H147.958C148.229 243.838 148.591 243.48 149.043 243.217C149.499 242.953 150.071 242.821 150.76 242.821C151.348 242.821 151.843 242.94 152.246 243.177C152.653 243.411 152.94 243.77 153.105 244.256C153.275 244.739 153.299 245.352 153.179 246.098L152.252 251.613H150.919L151.823 246.189C151.936 245.499 151.843 244.966 151.546 244.59C151.252 244.209 150.794 244.019 150.173 244.019C149.736 244.019 149.329 244.111 148.952 244.296C148.579 244.48 148.263 244.75 148.003 245.104C147.747 245.458 147.574 245.887 147.483 246.392ZM159.912 242.934L159.732 244.064H155.234L155.415 242.934H159.912ZM157.065 240.855H158.398L157.019 249.127C156.959 249.504 156.969 249.786 157.048 249.974C157.131 250.159 157.255 250.283 157.421 250.347C157.59 250.408 157.773 250.438 157.969 250.438C158.116 250.438 158.236 250.43 158.33 250.415C158.424 250.396 158.5 250.381 158.556 250.37L158.647 251.568C158.545 251.602 158.408 251.636 158.234 251.669C158.065 251.707 157.856 251.726 157.607 251.726C157.23 251.726 156.876 251.645 156.545 251.483C156.213 251.321 155.959 251.074 155.782 250.743C155.605 250.411 155.558 249.993 155.641 249.488L157.065 240.855ZM165.692 242.934L165.512 244.064H161.014L161.195 242.934H165.692ZM162.845 240.855H164.178L162.8 249.127C162.739 249.504 162.749 249.786 162.828 249.974C162.911 250.159 163.035 250.283 163.201 250.347C163.37 250.408 163.553 250.438 163.749 250.438C163.896 250.438 164.016 250.43 164.11 250.415C164.205 250.396 164.28 250.381 164.336 250.37L164.427 251.568C164.325 251.602 164.188 251.636 164.014 251.669C163.845 251.707 163.636 251.726 163.387 251.726C163.011 251.726 162.656 251.645 162.325 251.483C161.993 251.321 161.739 251.074 161.562 250.743C161.385 250.411 161.338 249.993 161.421 249.488L162.845 240.855ZM165.709 254.867L167.71 242.934H168.998L168.772 244.313H168.93C169.051 244.162 169.216 243.97 169.427 243.737C169.642 243.499 169.93 243.288 170.292 243.104C170.657 242.915 171.122 242.821 171.687 242.821C172.418 242.821 173.03 243.004 173.524 243.369C174.017 243.735 174.366 244.253 174.569 244.923C174.772 245.594 174.799 246.385 174.648 247.296C174.497 248.215 174.209 249.012 173.784 249.686C173.358 250.357 172.838 250.877 172.224 251.246C171.61 251.611 170.942 251.794 170.218 251.794C169.661 251.794 169.23 251.701 168.924 251.517C168.619 251.329 168.397 251.116 168.258 250.878C168.118 250.637 168.011 250.438 167.936 250.279H167.823L167.054 254.867H165.709ZM168.297 247.274C168.192 247.929 168.192 248.507 168.297 249.008C168.406 249.505 168.623 249.895 168.947 250.178C169.275 250.457 169.706 250.596 170.241 250.596C170.798 250.596 171.286 250.449 171.704 250.155C172.126 249.858 172.473 249.458 172.744 248.957C173.019 248.453 173.209 247.891 173.315 247.274C173.413 246.663 173.409 246.113 173.303 245.624C173.198 245.13 172.983 244.74 172.659 244.454C172.335 244.164 171.891 244.019 171.326 244.019C170.783 244.019 170.303 244.157 169.885 244.432C169.471 244.703 169.128 245.083 168.857 245.573C168.589 246.059 168.403 246.626 168.297 247.274ZM183.241 244.878L181.975 245.217C181.93 245.013 181.851 244.818 181.738 244.629C181.628 244.437 181.459 244.281 181.229 244.16C181.003 244.036 180.694 243.974 180.302 243.974C179.771 243.974 179.31 244.096 178.918 244.341C178.526 244.582 178.302 244.889 178.246 245.262C178.189 245.59 178.265 245.852 178.472 246.047C178.679 246.243 179.026 246.403 179.511 246.528L180.755 246.844C181.5 247.036 182.031 247.324 182.348 247.709C182.668 248.089 182.777 248.584 182.676 249.195C182.593 249.692 182.376 250.136 182.026 250.528C181.675 250.92 181.227 251.229 180.681 251.455C180.135 251.681 179.527 251.794 178.856 251.794C177.963 251.794 177.259 251.602 176.743 251.217C176.227 250.829 175.952 250.268 175.918 249.534L177.251 249.217C177.285 249.681 177.451 250.031 177.749 250.268C178.05 250.502 178.472 250.618 179.014 250.618C179.636 250.618 180.154 250.487 180.568 250.223C180.982 249.956 181.218 249.635 181.274 249.262C181.331 248.957 181.271 248.703 181.094 248.5C180.92 248.296 180.619 248.144 180.189 248.042L178.811 247.703C178.042 247.511 177.504 247.217 177.195 246.822C176.89 246.426 176.788 245.929 176.89 245.33C176.973 244.84 177.184 244.407 177.523 244.03C177.865 243.654 178.295 243.358 178.811 243.143C179.331 242.929 179.896 242.821 180.506 242.821C181.365 242.821 182.007 243.01 182.433 243.386C182.858 243.759 183.128 244.256 183.241 244.878ZM185.406 251.703C185.12 251.703 184.881 251.605 184.688 251.41C184.496 251.21 184.397 250.969 184.389 250.686C184.385 250.404 184.485 250.168 184.688 249.98C184.892 249.788 185.131 249.692 185.406 249.692C185.685 249.692 185.926 249.79 186.129 249.986C186.333 250.182 186.431 250.415 186.423 250.686C186.419 250.875 186.37 251.046 186.276 251.2C186.186 251.355 186.063 251.477 185.909 251.568C185.758 251.658 185.591 251.703 185.406 251.703ZM186.468 245.262C186.182 245.262 185.943 245.164 185.751 244.968C185.559 244.769 185.459 244.528 185.451 244.245C185.447 243.963 185.547 243.727 185.751 243.539C185.954 243.347 186.193 243.251 186.468 243.251C186.747 243.251 186.988 243.349 187.191 243.544C187.395 243.74 187.493 243.974 187.485 244.245C187.482 244.433 187.433 244.605 187.338 244.759C187.248 244.914 187.126 245.036 186.971 245.126C186.82 245.217 186.653 245.262 186.468 245.262ZM194.76 239.499L188.748 253.353H187.528L193.539 239.499H194.76ZM200.431 239.499L194.42 253.353H193.199L199.211 239.499H200.431ZM203.504 251.794C202.686 251.794 202.016 251.602 201.492 251.217C200.972 250.833 200.611 250.304 200.407 249.63C200.204 248.955 200.174 248.185 200.317 247.319C200.46 246.437 200.75 245.659 201.187 244.985C201.624 244.307 202.168 243.778 202.82 243.398C203.472 243.013 204.189 242.821 204.973 242.821C205.583 242.821 206.114 242.934 206.566 243.16C207.018 243.386 207.366 243.703 207.611 244.109C207.856 244.516 207.971 244.991 207.956 245.533H206.623C206.585 245.138 206.415 244.787 206.114 244.482C205.816 244.173 205.376 244.019 204.792 244.019C204.272 244.019 203.794 244.155 203.357 244.426C202.92 244.693 202.553 245.072 202.255 245.562C201.957 246.047 201.756 246.618 201.65 247.274C201.537 247.944 201.547 248.528 201.679 249.025C201.81 249.522 202.05 249.908 202.396 250.183C202.743 250.458 203.18 250.596 203.707 250.596C204.054 250.596 204.378 250.536 204.679 250.415C204.98 250.295 205.248 250.121 205.481 249.895C205.715 249.669 205.899 249.398 206.035 249.082H207.368C207.203 249.594 206.937 250.055 206.572 250.466C206.206 250.873 205.764 251.197 205.244 251.438C204.724 251.675 204.144 251.794 203.504 251.794ZM211.42 251.816C210.87 251.816 210.387 251.713 209.973 251.506C209.559 251.295 209.252 250.991 209.052 250.596C208.852 250.197 208.798 249.714 208.888 249.149C208.975 248.652 209.143 248.249 209.391 247.94C209.64 247.628 209.941 247.383 210.295 247.206C210.653 247.025 211.037 246.891 211.448 246.805C211.862 246.714 212.275 246.645 212.685 246.596C213.22 246.528 213.655 246.475 213.99 246.437C214.326 246.4 214.578 246.338 214.748 246.251C214.917 246.164 215.021 246.015 215.058 245.805V245.759C215.149 245.206 215.075 244.774 214.838 244.465C214.601 244.153 214.177 243.996 213.567 243.996C212.934 243.996 212.405 244.136 211.979 244.415C211.553 244.693 211.239 244.991 211.035 245.307L209.86 244.855C210.169 244.328 210.538 243.917 210.968 243.624C211.397 243.326 211.847 243.119 212.318 243.002C212.789 242.881 213.243 242.821 213.68 242.821C213.958 242.821 214.273 242.855 214.623 242.923C214.974 242.987 215.301 243.121 215.606 243.324C215.915 243.527 216.147 243.834 216.301 244.245C216.46 244.656 216.482 245.206 216.369 245.895L215.42 251.613H214.086L214.29 250.438H214.222C214.102 250.626 213.917 250.828 213.668 251.042C213.423 251.257 213.113 251.44 212.736 251.59C212.363 251.741 211.924 251.816 211.42 251.816ZM211.804 250.618C212.331 250.618 212.793 250.515 213.188 250.308C213.587 250.101 213.908 249.833 214.149 249.505C214.393 249.178 214.546 248.833 214.606 248.471L214.81 247.251C214.742 247.319 214.608 247.381 214.408 247.437C214.209 247.49 213.983 247.537 213.73 247.579C213.482 247.616 213.239 247.65 213.002 247.68C212.768 247.707 212.58 247.729 212.437 247.748C212.082 247.793 211.745 247.867 211.425 247.969C211.109 248.066 210.841 248.215 210.623 248.415C210.408 248.611 210.274 248.878 210.222 249.217C210.143 249.681 210.254 250.031 210.555 250.268C210.856 250.502 211.273 250.618 211.804 250.618ZM221.12 251.794C220.393 251.794 219.782 251.611 219.289 251.246C218.795 250.877 218.447 250.357 218.244 249.686C218.044 249.012 218.019 248.215 218.17 247.296C218.325 246.385 218.613 245.594 219.035 244.923C219.46 244.253 219.982 243.735 220.6 243.369C221.217 243.004 221.892 242.821 222.622 242.821C223.187 242.821 223.619 242.915 223.916 243.104C224.218 243.288 224.436 243.499 224.572 243.737C224.707 243.97 224.811 244.162 224.883 244.313H224.996L225.707 240.041H227.041L225.12 251.613H223.832L224.058 250.279H223.899C223.775 250.438 223.602 250.637 223.38 250.878C223.157 251.116 222.864 251.329 222.498 251.517C222.137 251.701 221.677 251.794 221.12 251.794ZM221.447 250.596C221.982 250.596 222.461 250.457 222.882 250.178C223.308 249.895 223.662 249.505 223.945 249.008C224.227 248.507 224.423 247.929 224.532 247.274C224.641 246.626 224.638 246.059 224.521 245.573C224.404 245.083 224.18 244.703 223.849 244.432C223.517 244.157 223.078 244.019 222.532 244.019C221.971 244.019 221.483 244.164 221.069 244.454C220.654 244.74 220.317 245.13 220.057 245.624C219.797 246.113 219.617 246.663 219.515 247.274C219.413 247.891 219.411 248.453 219.509 248.957C219.607 249.458 219.814 249.858 220.131 250.155C220.451 250.449 220.89 250.596 221.447 250.596ZM231.318 251.794C230.52 251.794 229.851 251.603 229.312 251.223C228.774 250.843 228.393 250.31 228.171 249.624C227.952 248.938 227.917 248.14 228.064 247.228C228.207 246.339 228.491 245.565 228.917 244.906C229.346 244.243 229.879 243.731 230.516 243.369C231.156 243.004 231.861 242.821 232.629 242.821C233.428 242.821 234.094 243.013 234.629 243.398C235.168 243.778 235.548 244.313 235.77 245.002C235.993 245.688 236.03 246.49 235.883 247.409C235.74 248.291 235.452 249.061 235.019 249.72C234.59 250.376 234.057 250.886 233.42 251.251C232.787 251.613 232.087 251.794 231.318 251.794ZM231.341 250.596C231.951 250.596 232.48 250.44 232.928 250.127C233.38 249.814 233.746 249.402 234.025 248.89C234.307 248.377 234.497 247.824 234.595 247.228C234.686 246.663 234.682 246.138 234.584 245.652C234.486 245.162 234.277 244.769 233.957 244.471C233.637 244.17 233.186 244.019 232.606 244.019C231.996 244.019 231.463 244.177 231.007 244.494C230.555 244.81 230.19 245.226 229.911 245.742C229.632 246.258 229.446 246.814 229.352 247.409C229.261 247.974 229.263 248.5 229.358 248.986C229.455 249.468 229.665 249.858 229.985 250.155C230.309 250.449 230.761 250.596 231.341 250.596ZM237.23 251.613L238.676 242.934H239.964L239.738 244.245H239.829C240.055 243.816 240.399 243.467 240.863 243.2C241.326 242.932 241.818 242.799 242.337 242.799C242.439 242.799 242.562 242.8 242.705 242.804C242.848 242.804 242.959 242.81 243.038 242.821L242.812 244.177C242.767 244.166 242.665 244.149 242.507 244.126C242.349 244.1 242.179 244.087 241.998 244.087C241.577 244.087 241.187 244.175 240.829 244.352C240.471 244.526 240.172 244.767 239.93 245.076C239.689 245.381 239.535 245.729 239.467 246.121L238.563 251.613H237.23ZM243.181 251.613L244.627 242.934H245.915L245.689 244.245H245.78C246.006 243.816 246.35 243.467 246.814 243.2C247.277 242.932 247.769 242.799 248.288 242.799C248.39 242.799 248.513 242.8 248.656 242.804C248.799 242.804 248.91 242.81 248.989 242.821L248.763 244.177C248.718 244.166 248.616 244.149 248.458 244.126C248.3 244.1 248.13 244.087 247.949 244.087C247.528 244.087 247.138 244.175 246.78 244.352C246.422 244.526 246.123 244.767 245.882 245.076C245.64 245.381 245.486 245.729 245.418 246.121L244.514 251.613H243.181ZM251.663 251.816C251.113 251.816 250.631 251.713 250.217 251.506C249.802 251.295 249.495 250.991 249.296 250.596C249.096 250.197 249.041 249.714 249.132 249.149C249.218 248.652 249.386 248.249 249.635 247.94C249.883 247.628 250.185 247.383 250.539 247.206C250.897 247.025 251.281 246.891 251.691 246.805C252.106 246.714 252.518 246.645 252.929 246.596C253.464 246.528 253.899 246.475 254.234 246.437C254.569 246.4 254.822 246.338 254.991 246.251C255.161 246.164 255.264 246.015 255.302 245.805V245.759C255.392 245.206 255.319 244.774 255.081 244.465C254.844 244.153 254.42 243.996 253.81 243.996C253.177 243.996 252.648 244.136 252.222 244.415C251.797 244.693 251.482 244.991 251.279 245.307L250.104 244.855C250.413 244.328 250.782 243.917 251.211 243.624C251.64 243.326 252.091 243.119 252.561 243.002C253.032 242.881 253.486 242.821 253.923 242.821C254.202 242.821 254.516 242.855 254.867 242.923C255.217 242.987 255.545 243.121 255.85 243.324C256.159 243.527 256.39 243.834 256.545 244.245C256.703 244.656 256.726 245.206 256.613 245.895L255.663 251.613H254.33L254.533 250.438H254.466C254.345 250.626 254.16 250.828 253.912 251.042C253.667 251.257 253.356 251.44 252.98 251.59C252.607 251.741 252.168 251.816 251.663 251.816ZM252.047 250.618C252.575 250.618 253.036 250.515 253.432 250.308C253.831 250.101 254.151 249.833 254.392 249.505C254.637 249.178 254.79 248.833 254.85 248.471L255.053 247.251C254.985 247.319 254.852 247.381 254.652 247.437C254.452 247.49 254.226 247.537 253.974 247.579C253.725 247.616 253.482 247.65 253.245 247.68C253.012 247.707 252.823 247.729 252.68 247.748C252.326 247.793 251.989 247.867 251.669 247.969C251.352 248.066 251.085 248.215 250.866 248.415C250.652 248.611 250.518 248.878 250.465 249.217C250.386 249.681 250.497 250.031 250.799 250.268C251.1 250.502 251.516 250.618 252.047 250.618ZM259.227 251.703C258.941 251.703 258.702 251.605 258.51 251.41C258.318 251.21 258.218 250.969 258.21 250.686C258.206 250.404 258.306 250.168 258.51 249.98C258.713 249.788 258.952 249.692 259.227 249.692C259.506 249.692 259.747 249.79 259.951 249.986C260.154 250.182 260.252 250.415 260.244 250.686C260.241 250.875 260.192 251.046 260.097 251.2C260.007 251.355 259.885 251.477 259.73 251.568C259.579 251.658 259.412 251.703 259.227 251.703ZM265.982 251.794C265.165 251.794 264.494 251.602 263.971 251.217C263.451 250.833 263.089 250.304 262.886 249.63C262.682 248.955 262.652 248.185 262.795 247.319C262.939 246.437 263.229 245.659 263.666 244.985C264.102 244.307 264.647 243.778 265.298 243.398C265.95 243.013 266.668 242.821 267.451 242.821C268.061 242.821 268.592 242.934 269.044 243.16C269.497 243.386 269.845 243.703 270.09 244.109C270.335 244.516 270.45 244.991 270.434 245.533H269.101C269.063 245.138 268.894 244.787 268.592 244.482C268.295 244.173 267.854 244.019 267.27 244.019C266.751 244.019 266.272 244.155 265.835 244.426C265.398 244.693 265.031 245.072 264.733 245.562C264.436 246.047 264.234 246.618 264.129 247.274C264.016 247.944 264.025 248.528 264.157 249.025C264.289 249.522 264.528 249.908 264.875 250.183C265.221 250.458 265.658 250.596 266.185 250.596C266.532 250.596 266.856 250.536 267.157 250.415C267.459 250.295 267.726 250.121 267.96 249.895C268.193 249.669 268.378 249.398 268.513 249.082H269.847C269.681 249.594 269.416 250.055 269.05 250.466C268.685 250.873 268.242 251.197 267.722 251.438C267.203 251.675 266.622 251.794 265.982 251.794ZM274.949 251.794C274.15 251.794 273.482 251.603 272.943 251.223C272.404 250.843 272.024 250.31 271.802 249.624C271.583 248.938 271.548 248.14 271.694 247.228C271.838 246.339 272.122 245.565 272.548 244.906C272.977 244.243 273.51 243.731 274.147 243.369C274.787 243.004 275.491 242.821 276.26 242.821C277.058 242.821 277.725 243.013 278.26 243.398C278.799 243.778 279.179 244.313 279.401 245.002C279.624 245.688 279.661 246.49 279.514 247.409C279.371 248.291 279.083 249.061 278.65 249.72C278.22 250.376 277.687 250.886 277.051 251.251C276.418 251.613 275.717 251.794 274.949 251.794ZM274.972 250.596C275.582 250.596 276.111 250.44 276.559 250.127C277.011 249.814 277.377 249.402 277.655 248.89C277.938 248.377 278.128 247.824 278.226 247.228C278.316 246.663 278.313 246.138 278.215 245.652C278.117 245.162 277.908 244.769 277.588 244.471C277.267 244.17 276.817 244.019 276.237 244.019C275.627 244.019 275.094 244.177 274.638 244.494C274.186 244.81 273.821 245.226 273.542 245.742C273.263 246.258 273.077 246.814 272.983 247.409C272.892 247.974 272.894 248.5 272.988 248.986C273.086 249.468 273.295 249.858 273.616 250.155C273.939 250.449 274.391 250.596 274.972 250.596ZM280.86 251.613L282.307 242.934H283.595L283.369 244.29H283.482C283.742 243.827 284.094 243.467 284.539 243.211C284.987 242.951 285.494 242.821 286.059 242.821C286.624 242.821 287.078 242.951 287.42 243.211C287.763 243.467 288.002 243.827 288.138 244.29H288.228C288.522 243.838 288.914 243.48 289.404 243.217C289.897 242.953 290.455 242.821 291.076 242.821C291.844 242.821 292.436 243.064 292.85 243.55C293.268 244.036 293.393 244.787 293.223 245.805L292.251 251.613H290.918L291.89 245.805C291.991 245.16 291.89 244.703 291.585 244.432C291.283 244.157 290.895 244.019 290.421 244.019C289.81 244.019 289.308 244.202 288.912 244.567C288.516 244.932 288.274 245.398 288.183 245.963L287.234 251.613H285.878L286.872 245.669C286.951 245.172 286.857 244.772 286.59 244.471C286.322 244.17 285.934 244.019 285.426 244.019C285.079 244.019 284.74 244.113 284.409 244.302C284.077 244.486 283.793 244.742 283.556 245.07C283.318 245.394 283.166 245.767 283.098 246.189L282.194 251.613H280.86ZM300.792 239.499L294.78 253.353H293.559L299.571 239.499H300.792ZM302.327 251.613L301.129 242.934H302.53L303.299 249.579H303.389L306.35 242.934H307.774L308.497 249.556H308.587L311.571 242.934H312.972L308.881 251.613H307.57L306.779 244.946H306.644L303.638 251.613H302.327ZM313.288 251.613L314.735 242.934H316.068L314.622 251.613H313.288ZM315.808 241.465C315.548 241.465 315.324 241.377 315.136 241.2C314.951 241.023 314.859 240.81 314.859 240.561C314.859 240.313 314.951 240.1 315.136 239.923C315.324 239.746 315.548 239.657 315.808 239.657C316.068 239.657 316.291 239.746 316.475 239.923C316.663 240.1 316.758 240.313 316.758 240.561C316.758 240.81 316.663 241.023 316.475 241.2C316.291 241.377 316.068 241.465 315.808 241.465ZM324.342 244.878L323.076 245.217C323.031 245.013 322.952 244.818 322.839 244.629C322.729 244.437 322.56 244.281 322.33 244.16C322.104 244.036 321.795 243.974 321.403 243.974C320.872 243.974 320.411 244.096 320.019 244.341C319.627 244.582 319.403 244.889 319.347 245.262C319.29 245.59 319.366 245.852 319.573 246.047C319.78 246.243 320.127 246.403 320.612 246.528L321.855 246.844C322.601 247.036 323.132 247.324 323.449 247.709C323.769 248.089 323.878 248.584 323.777 249.195C323.694 249.692 323.477 250.136 323.127 250.528C322.776 250.92 322.328 251.229 321.782 251.455C321.236 251.681 320.628 251.794 319.957 251.794C319.064 251.794 318.36 251.602 317.844 251.217C317.328 250.829 317.053 250.268 317.019 249.534L318.352 249.217C318.386 249.681 318.552 250.031 318.85 250.268C319.151 250.502 319.573 250.618 320.115 250.618C320.737 250.618 321.255 250.487 321.669 250.223C322.083 249.956 322.319 249.635 322.375 249.262C322.432 248.957 322.372 248.703 322.194 248.5C322.021 248.296 321.72 248.144 321.29 248.042L319.912 247.703C319.143 247.511 318.605 247.217 318.296 246.822C317.991 246.426 317.889 245.929 317.991 245.33C318.074 244.84 318.285 244.407 318.624 244.03C318.966 243.654 319.396 243.358 319.912 243.143C320.432 242.929 320.997 242.821 321.607 242.821C322.466 242.821 323.108 243.01 323.534 243.386C323.959 243.759 324.229 244.256 324.342 244.878ZM327.569 246.392L326.71 251.613H325.377L327.298 240.041H328.631L327.931 244.29H328.044C328.315 243.838 328.677 243.48 329.129 243.217C329.584 242.953 330.157 242.821 330.846 242.821C331.434 242.821 331.929 242.94 332.332 243.177C332.739 243.411 333.025 243.77 333.191 244.256C333.361 244.739 333.385 245.352 333.265 246.098L332.338 251.613H331.005L331.909 246.189C332.022 245.499 331.929 244.966 331.632 244.59C331.338 244.209 330.88 244.019 330.259 244.019C329.822 244.019 329.415 244.111 329.038 244.296C328.665 244.48 328.349 244.75 328.089 245.104C327.833 245.458 327.66 245.887 327.569 246.392ZM338.032 240.041L336.111 251.613H334.777L336.699 240.041H338.032ZM338.553 251.613L340 242.934H341.333L339.887 251.613H338.553ZM341.073 241.465C340.813 241.465 340.589 241.377 340.401 241.2C340.216 241.023 340.124 240.81 340.124 240.561C340.124 240.313 340.216 240.1 340.401 239.923C340.589 239.746 340.813 239.657 341.073 239.657C341.333 239.657 341.555 239.746 341.74 239.923C341.928 240.1 342.022 240.313 342.022 240.561C342.022 240.81 341.928 241.023 341.74 241.2C341.555 241.377 341.333 241.465 341.073 241.465ZM349.606 244.878L348.341 245.217C348.296 245.013 348.216 244.818 348.103 244.629C347.994 244.437 347.825 244.281 347.595 244.16C347.369 244.036 347.06 243.974 346.668 243.974C346.137 243.974 345.676 244.096 345.284 244.341C344.892 244.582 344.668 244.889 344.612 245.262C344.555 245.59 344.63 245.852 344.838 246.047C345.045 246.243 345.391 246.403 345.877 246.528L347.12 246.844C347.866 247.036 348.397 247.324 348.714 247.709C349.034 248.089 349.143 248.584 349.041 249.195C348.959 249.692 348.742 250.136 348.392 250.528C348.041 250.92 347.593 251.229 347.047 251.455C346.501 251.681 345.892 251.794 345.222 251.794C344.329 251.794 343.625 251.602 343.109 251.217C342.593 250.829 342.318 250.268 342.284 249.534L343.617 249.217C343.651 249.681 343.817 250.031 344.114 250.268C344.416 250.502 344.838 250.618 345.38 250.618C346.002 250.618 346.52 250.487 346.934 250.223C347.348 249.956 347.584 249.635 347.64 249.262C347.697 248.957 347.636 248.703 347.459 248.5C347.286 248.296 346.985 248.144 346.555 248.042L345.177 247.703C344.408 247.511 343.87 247.217 343.561 246.822C343.256 246.426 343.154 245.929 343.256 245.33C343.338 244.84 343.549 244.407 343.888 244.03C344.231 243.654 344.661 243.358 345.177 243.143C345.696 242.929 346.262 242.821 346.872 242.821C347.731 242.821 348.373 243.01 348.798 243.386C349.224 243.759 349.493 244.256 349.606 244.878ZM355.863 242.934L355.682 244.064H351.184L351.365 242.934H355.863ZM353.015 240.855H354.348L352.97 249.127C352.909 249.504 352.919 249.786 352.998 249.974C353.081 250.159 353.205 250.283 353.371 250.347C353.54 250.408 353.723 250.438 353.919 250.438C354.066 250.438 354.186 250.43 354.281 250.415C354.375 250.396 354.45 250.381 354.507 250.37L354.597 251.568C354.495 251.602 354.358 251.636 354.184 251.669C354.015 251.707 353.806 251.726 353.557 251.726C353.181 251.726 352.827 251.645 352.495 251.483C352.164 251.321 351.909 251.074 351.732 250.743C351.555 250.411 351.508 249.993 351.591 249.488L353.015 240.855ZM362.524 239.499L356.512 253.353H355.292L361.304 239.499H362.524ZM363.54 242.934H364.873L363.336 252.246C363.246 252.781 363.075 253.244 362.822 253.636C362.574 254.027 362.246 254.331 361.839 254.545C361.436 254.76 360.956 254.867 360.398 254.867C360.353 254.867 360.308 254.867 360.263 254.867C360.217 254.867 360.172 254.867 360.127 254.867L360.331 253.624C360.376 253.624 360.417 253.624 360.455 253.624C360.492 253.624 360.534 253.624 360.579 253.624C360.986 253.624 361.306 253.504 361.54 253.263C361.769 253.025 361.924 252.686 362.003 252.246L363.54 242.934ZM364.568 241.488C364.308 241.488 364.084 241.399 363.896 241.222C363.711 241.045 363.619 240.832 363.619 240.584C363.619 240.335 363.711 240.122 363.896 239.945C364.084 239.768 364.308 239.68 364.568 239.68C364.828 239.68 365.05 239.768 365.235 239.945C365.423 240.122 365.517 240.335 365.517 240.584C365.517 240.832 365.423 241.045 365.235 241.222C365.05 241.399 364.828 241.488 364.568 241.488ZM368.4 251.816C367.85 251.816 367.368 251.713 366.954 251.506C366.54 251.295 366.233 250.991 366.033 250.596C365.833 250.197 365.779 249.714 365.869 249.149C365.956 248.652 366.123 248.249 366.372 247.94C366.621 247.628 366.922 247.383 367.276 247.206C367.634 247.025 368.018 246.891 368.429 246.805C368.843 246.714 369.255 246.645 369.666 246.596C370.201 246.528 370.636 246.475 370.971 246.437C371.306 246.4 371.559 246.338 371.728 246.251C371.898 246.164 372.001 246.015 372.039 245.805V245.759C372.13 245.206 372.056 244.774 371.819 244.465C371.581 244.153 371.158 243.996 370.547 243.996C369.915 243.996 369.385 244.136 368.96 244.415C368.534 244.693 368.22 244.991 368.016 245.307L366.841 244.855C367.15 244.328 367.519 243.917 367.948 243.624C368.378 243.326 368.828 243.119 369.299 243.002C369.77 242.881 370.224 242.821 370.66 242.821C370.939 242.821 371.254 242.855 371.604 242.923C371.954 242.987 372.282 243.121 372.587 243.324C372.896 243.527 373.128 243.834 373.282 244.245C373.44 244.656 373.463 245.206 373.35 245.895L372.401 251.613H371.067L371.271 250.438H371.203C371.082 250.626 370.898 250.828 370.649 251.042C370.404 251.257 370.094 251.44 369.717 251.59C369.344 251.741 368.905 251.816 368.4 251.816ZM368.785 250.618C369.312 250.618 369.773 250.515 370.169 250.308C370.568 250.101 370.888 249.833 371.129 249.505C371.374 249.178 371.527 248.833 371.587 248.471L371.791 247.251C371.723 247.319 371.589 247.381 371.389 247.437C371.19 247.49 370.964 247.537 370.711 247.579C370.463 247.616 370.22 247.65 369.982 247.68C369.749 247.707 369.561 247.729 369.417 247.748C369.063 247.793 368.726 247.867 368.406 247.969C368.09 248.066 367.822 248.215 367.604 248.415C367.389 248.611 367.255 248.878 367.203 249.217C367.123 249.681 367.235 250.031 367.536 250.268C367.837 250.502 368.254 250.618 368.785 250.618ZM377.027 246.392L376.168 251.613H374.835L376.281 242.934H377.569L377.343 244.29H377.456C377.727 243.85 378.095 243.495 378.558 243.228C379.021 242.957 379.581 242.821 380.236 242.821C380.816 242.821 381.306 242.942 381.705 243.183C382.108 243.42 382.393 243.782 382.558 244.268C382.728 244.75 382.752 245.36 382.632 246.098L381.705 251.613H380.372L381.276 246.189C381.389 245.511 381.3 244.98 381.01 244.595C380.724 244.211 380.27 244.019 379.649 244.019C379.219 244.019 378.822 244.111 378.456 244.296C378.095 244.48 377.788 244.75 377.535 245.104C377.287 245.458 377.117 245.887 377.027 246.392ZM387.758 251.794C386.926 251.794 386.238 251.609 385.696 251.24C385.153 250.867 384.775 250.347 384.56 249.681C384.345 249.01 384.311 248.23 384.458 247.341C384.605 246.452 384.897 245.669 385.334 244.991C385.771 244.309 386.315 243.778 386.967 243.398C387.619 243.013 388.334 242.821 389.114 242.821C389.566 242.821 390.001 242.897 390.419 243.047C390.837 243.198 391.199 243.443 391.504 243.782C391.809 244.117 392.022 244.561 392.143 245.115C392.263 245.669 392.256 246.351 392.12 247.161L392.03 247.726H385.34L385.521 246.573H390.854C390.941 246.083 390.918 245.646 390.786 245.262C390.658 244.878 390.434 244.575 390.114 244.352C389.798 244.13 389.397 244.019 388.911 244.019C388.41 244.019 387.943 244.155 387.509 244.426C387.076 244.693 386.715 245.032 386.425 245.443C386.134 245.85 385.954 246.264 385.882 246.686L385.724 247.68C385.611 248.4 385.628 248.972 385.775 249.398C385.925 249.824 386.187 250.131 386.56 250.319C386.933 250.504 387.4 250.596 387.961 250.596C388.319 250.596 388.649 250.547 388.95 250.449C389.252 250.347 389.521 250.197 389.758 249.997C389.995 249.794 390.195 249.541 390.357 249.24L391.578 249.601C391.37 250.038 391.078 250.423 390.702 250.754C390.329 251.082 389.892 251.338 389.391 251.523C388.894 251.703 388.349 251.794 387.758 251.794Z" fill="white"/>
<path d="M431.502 219.24H102.916C90.4008 219.24 80.2551 231.508 80.2551 246.642C80.2551 261.776 90.4008 274.045 102.916 274.045H431.502C444.017 274.045 454.163 261.776 454.163 246.642C454.163 231.508 444.017 219.24 431.502 219.24Z" stroke="white" stroke-opacity="0.32" stroke-width="3.4308"/>
<path opacity="0.35" d="M106.022 259.082C112.843 259.082 118.373 253.552 118.373 246.731C118.373 239.909 112.843 234.38 106.022 234.38C99.2008 234.38 93.6711 239.909 93.6711 246.731C93.6711 253.552 99.2008 259.082 106.022 259.082Z" fill="white"/>
<path opacity="0.75" d="M427.394 254.097C432.626 254.097 436.867 249.856 436.867 244.624C436.867 239.392 432.626 235.151 427.394 235.151C422.162 235.151 417.921 239.392 417.921 244.624C417.921 249.856 422.162 254.097 427.394 254.097Z" stroke="white" stroke-width="3.34345" stroke-linecap="round" stroke-linejoin="round"/>
<path opacity="0.85" d="M433.802 251.507L439.545 257.25" stroke="white" stroke-width="3.34345" stroke-linecap="round" stroke-linejoin="round"/>
<path opacity="0.22" d="M126.844 263.885H125.23C124.933 263.885 124.693 264.192 124.693 264.571V266.629C124.693 267.008 124.933 267.315 125.23 267.315H126.844C127.141 267.315 127.382 267.008 127.382 266.629V264.571C127.382 264.192 127.141 263.885 126.844 263.885Z" fill="white"/>
<path opacity="0.22" d="M376.936 263.885H375.323C375.026 263.885 374.785 264.192 374.785 264.571V266.629C374.785 267.008 375.026 267.315 375.323 267.315H376.936C377.233 267.315 377.474 267.008 377.474 266.629V264.571C377.474 264.192 377.233 263.885 376.936 263.885Z" fill="white"/>
<path opacity="0.18" d="M87.3132 245.015H86.2375C85.9405 245.015 85.6997 245.322 85.6997 245.701V247.074C85.6997 247.453 85.9405 247.76 86.2375 247.76H87.3132C87.6102 247.76 87.851 247.453 87.851 247.074V245.701C87.851 245.322 87.6102 245.015 87.3132 245.015Z" fill="white"/>
<path opacity="0.18" d="M431.526 245.015H430.45C430.153 245.015 429.913 245.322 429.913 245.701V247.074C429.913 247.453 430.153 247.76 430.45 247.76H431.526C431.823 247.76 432.064 247.453 432.064 247.074V245.701C432.064 245.322 431.823 245.015 431.526 245.015Z" fill="white"/>
</g>
<g clip-path="url(#clip1_73_2130)">
<path opacity="0.18" d="M173.309 146.811H172.158C171.999 146.811 171.87 146.94 171.87 147.099V148.252C171.87 148.411 171.999 148.54 172.158 148.54H173.309C173.468 148.54 173.597 148.411 173.597 148.252V147.099C173.597 146.94 173.468 146.811 173.309 146.811Z" fill="white"/>
<path opacity="0.22" d="M191.73 141.05H190.866C190.707 141.05 190.578 141.179 190.578 141.338V142.202C190.578 142.361 190.707 142.49 190.866 142.49H191.73C191.889 142.49 192.017 142.361 192.017 142.202V141.338C192.017 141.179 191.889 141.05 191.73 141.05Z" fill="white"/>
<path opacity="0.18" d="M340.247 146.811H339.096C338.937 146.811 338.808 146.94 338.808 147.099V148.252C338.808 148.411 338.937 148.54 339.096 148.54H340.247C340.406 148.54 340.535 148.411 340.535 148.252V147.099C340.535 146.94 340.406 146.811 340.247 146.811Z" fill="white"/>
<path opacity="0.22" d="M324.129 141.05H323.266C323.107 141.05 322.978 141.179 322.978 141.338V142.202C322.978 142.361 323.107 142.49 323.266 142.49H324.129C324.288 142.49 324.417 142.361 324.417 142.202V141.338C324.417 141.179 324.288 141.05 324.129 141.05Z" fill="white"/>
<path opacity="0.2" d="M265.125 138.169H264.262C264.103 138.169 263.974 138.298 263.974 138.457V139.321C263.974 139.48 264.103 139.609 264.262 139.609H265.125C265.284 139.609 265.413 139.48 265.413 139.321V138.457C265.413 138.298 265.284 138.169 265.125 138.169Z" fill="white"/>
<path opacity="0.05" d="M192.018 179.94C203.94 179.94 213.604 170.267 213.604 158.334C213.604 146.402 203.94 136.729 192.018 136.729C180.096 136.729 170.431 146.402 170.431 158.334C170.431 170.267 180.096 179.94 192.018 179.94Z" fill="white"/>
<path opacity="0.08" d="M192.018 175.619C201.555 175.619 209.287 167.881 209.287 158.334C209.287 148.788 201.555 141.05 192.018 141.05C182.48 141.05 174.748 148.788 174.748 158.334C174.748 167.881 182.48 175.619 192.018 175.619Z" fill="white"/>
<path opacity="0.9" d="M192.017 166.977C197.581 166.977 202.091 162.463 202.091 156.894C202.091 151.326 197.581 146.811 192.017 146.811C186.454 146.811 181.944 151.326 181.944 156.894C181.944 162.463 186.454 166.977 192.017 166.977Z" fill="white" fill-opacity="0.4"/>
<path opacity="0.2" d="M200.652 169.858H183.383C176.23 169.858 170.431 175.662 170.431 182.821C170.431 189.981 176.23 195.785 183.383 195.785H200.652C207.805 195.785 213.604 189.981 213.604 182.821C213.604 175.662 207.805 169.858 200.652 169.858Z" fill="white"/>
<path opacity="0.28" d="M199.213 174.179H184.822C179.258 174.179 174.748 178.693 174.748 184.262C174.748 189.83 179.258 194.344 184.822 194.344H199.213C204.777 194.344 209.287 189.83 209.287 184.262C209.287 178.693 204.777 174.179 199.213 174.179Z" fill="white"/>
<path opacity="0.06" d="M263.974 179.94C278.28 179.94 289.878 168.332 289.878 154.013C289.878 139.694 278.28 128.086 263.974 128.086C249.667 128.086 238.07 139.694 238.07 154.013C238.07 168.332 249.667 179.94 263.974 179.94Z" fill="white"/>
<path opacity="0.1" d="M263.974 174.899C275.499 174.899 284.841 165.548 284.841 154.013C284.841 142.478 275.499 133.128 263.974 133.128C252.449 133.128 243.107 142.478 243.107 154.013C243.107 165.548 252.449 174.899 263.974 174.899Z" fill="white"/>
<path opacity="0.95" d="M263.974 164.96C270.809 164.96 276.35 159.414 276.35 152.573C276.35 145.732 270.809 140.186 263.974 140.186C257.139 140.186 251.598 145.732 251.598 152.573C251.598 159.414 257.139 164.96 263.974 164.96Z" fill="white" fill-opacity="0.4"/>
<path opacity="0.22" d="M276.206 167.265H251.741C243.396 167.265 236.631 174.036 236.631 182.389C236.631 190.742 243.396 197.513 251.741 197.513H276.206C284.552 197.513 291.317 190.742 291.317 182.389C291.317 174.036 284.552 167.265 276.206 167.265Z" fill="white"/>
<path opacity="0.3" d="M275.487 171.586H252.461C246.103 171.586 240.948 176.745 240.948 183.109C240.948 189.473 246.103 194.632 252.461 194.632H275.487C281.845 194.632 287 189.473 287 183.109C287 176.745 281.845 171.586 275.487 171.586Z" fill="white"/>
<path opacity="0.18" d="M263.974 183.397C272.717 183.397 279.804 180.56 279.804 177.06C279.804 173.559 272.717 170.722 263.974 170.722C255.231 170.722 248.144 173.559 248.144 177.06C248.144 180.56 255.231 183.397 263.974 183.397Z" fill="white"/>
<path opacity="0.05" d="M335.93 179.94C347.852 179.94 357.517 170.267 357.517 158.334C357.517 146.402 347.852 136.729 335.93 136.729C324.008 136.729 314.343 146.402 314.343 158.334C314.343 170.267 324.008 179.94 335.93 179.94Z" fill="white"/>
<path opacity="0.08" d="M335.93 175.619C345.468 175.619 353.2 167.881 353.2 158.334C353.2 148.788 345.468 141.05 335.93 141.05C326.392 141.05 318.661 148.788 318.661 158.334C318.661 167.881 326.392 175.619 335.93 175.619Z" fill="white"/>
<path opacity="0.9" d="M335.93 166.977C341.494 166.977 346.004 162.463 346.004 156.894C346.004 151.326 341.494 146.811 335.93 146.811C330.366 146.811 325.856 151.326 325.856 156.894C325.856 162.463 330.366 166.977 335.93 166.977Z" fill="white" fill-opacity="0.4"/>
<path opacity="0.2" d="M344.565 169.858H327.295C320.142 169.858 314.343 175.662 314.343 182.821C314.343 189.981 320.142 195.785 327.295 195.785H344.565C351.718 195.785 357.517 189.981 357.517 182.821C357.517 175.662 351.718 169.858 344.565 169.858Z" fill="white"/>
<path opacity="0.28" d="M343.126 174.179H328.734C323.171 174.179 318.661 178.693 318.661 184.262C318.661 189.83 323.171 194.344 328.734 194.344H343.126C348.689 194.344 353.2 189.83 353.2 184.262C353.2 178.693 348.689 174.179 343.126 174.179Z" fill="white"/>
<path opacity="0.1" d="M192.018 195.208C205.529 195.208 216.483 193.532 216.483 191.463C216.483 189.395 205.529 187.718 192.018 187.718C178.506 187.718 167.552 189.395 167.552 191.463C167.552 193.532 178.506 195.208 192.018 195.208Z" fill="white"/>
<path opacity="0.1" d="M263.974 201.546C281.46 201.546 295.634 199.611 295.634 197.225C295.634 194.838 281.46 192.904 263.974 192.904C246.488 192.904 232.313 194.838 232.313 197.225C232.313 199.611 246.488 201.546 263.974 201.546Z" fill="white"/>
<path opacity="0.1" d="M335.93 195.208C349.442 195.208 360.395 193.532 360.395 191.463C360.395 189.395 349.442 187.718 335.93 187.718C322.418 187.718 311.465 189.395 311.465 191.463C311.465 193.532 322.418 195.208 335.93 195.208Z" fill="white"/>
</g>
<path opacity="0.05" d="M132 186.032C141.941 186.032 150 177.966 150 168.016C150 158.066 141.941 150 132 150C122.059 150 114 158.066 114 168.016C114 177.966 122.059 186.032 132 186.032Z" fill="white"/>
<path opacity="0.08" d="M132 182.428C139.953 182.428 146.4 175.976 146.4 168.016C146.4 160.056 139.953 153.603 132 153.603C124.047 153.603 117.6 160.056 117.6 168.016C117.6 175.976 124.047 182.428 132 182.428Z" fill="white"/>
<path opacity="0.9" d="M132 175.222C136.639 175.222 140.4 171.458 140.4 166.815C140.4 162.172 136.639 158.407 132 158.407C127.361 158.407 123.6 162.172 123.6 166.815C123.6 171.458 127.361 175.222 132 175.222Z" fill="white" fill-opacity="0.4"/>
<path opacity="0.2" d="M139.2 177.624H124.8C118.835 177.624 114 182.464 114 188.434C114 194.404 118.835 199.243 124.8 199.243H139.2C145.165 199.243 150 194.404 150 188.434C150 182.464 145.165 177.624 139.2 177.624Z" fill="white"/>
<path opacity="0.28" d="M138 181.228H126C121.361 181.228 117.6 184.992 117.6 189.635C117.6 194.278 121.361 198.042 126 198.042H138C142.639 198.042 146.4 194.278 146.4 189.635C146.4 184.992 142.639 181.228 138 181.228Z" fill="white"/>
<path opacity="0.05" d="M397 187.032C406.941 187.032 415 178.966 415 169.016C415 159.066 406.941 151 397 151C387.059 151 379 159.066 379 169.016C379 178.966 387.059 187.032 397 187.032Z" fill="white"/>
<path opacity="0.08" d="M397 183.428C404.953 183.428 411.4 176.976 411.4 169.016C411.4 161.056 404.953 154.603 397 154.603C389.047 154.603 382.6 161.056 382.6 169.016C382.6 176.976 389.047 183.428 397 183.428Z" fill="white"/>
<path opacity="0.9" d="M397 176.222C401.639 176.222 405.4 172.458 405.4 167.815C405.4 163.172 401.639 159.407 397 159.407C392.361 159.407 388.6 163.172 388.6 167.815C388.6 172.458 392.361 176.222 397 176.222Z" fill="white" fill-opacity="0.4"/>
<path opacity="0.2" d="M404.2 178.624H389.8C383.835 178.624 379 183.464 379 189.434C379 195.404 383.835 200.243 389.8 200.243H404.2C410.165 200.243 415 195.404 415 189.434C415 183.464 410.165 178.624 404.2 178.624Z" fill="white"/>
<path opacity="0.28" d="M403 182.228H391C386.361 182.228 382.6 185.992 382.6 190.635C382.6 195.278 386.361 199.042 391 199.042H403C407.639 199.042 411.4 195.278 411.4 190.635C411.4 185.992 407.639 182.228 403 182.228Z" fill="white"/>
<defs>
<clipPath id="clip0_73_2130">
<rect width="390.702" height="69.8314" fill="white" transform="translate(70.5317 212.169)"/>
</clipPath>
<clipPath id="clip1_73_2130">
<rect width="193" height="73.7941" fill="white" transform="translate(167.532 127.774)"/>
</clipPath>
</defs>
</svg>
