<svg width="536" height="458" viewBox="0 0 536 458" fill="none" xmlns="http://www.w3.org/2000/svg">
<path d="M311.422 51.4179C336.633 44.3362 360.817 45.0981 383.975 53.7037C407.132 62.3093 426.023 74.7047 440.648 90.89C455.272 107.075 469.566 123.399 483.529 139.861C497.491 156.324 506.314 174.337 509.997 193.901C513.68 213.464 515.371 233.462 515.069 253.892C514.767 274.323 506.928 292.766 491.553 309.222C476.177 325.678 459.776 340.693 442.349 354.267C424.922 367.841 404.41 376.696 380.813 380.831C357.217 384.966 334.42 387.23 312.424 387.622C290.427 388.015 268.431 388.408 246.434 388.8C224.438 389.193 201.575 387.744 177.846 384.454C154.117 381.164 131.488 374.141 109.959 363.384C88.4301 352.627 72.1675 338.063 61.1711 319.691C50.1748 301.318 41.8305 282.103 36.1382 262.045C30.4459 241.986 30.0861 221.833 35.0588 201.584C40.0315 181.335 52.5669 164.532 72.665 151.175C92.7631 137.819 109.512 123.593 122.911 108.499C136.311 93.4053 151.876 78.2726 169.608 63.1013C187.34 47.9299 209.106 43.9603 234.906 51.1923C260.706 58.4244 286.211 58.4996 311.422 51.4179Z" fill="white" fill-opacity="0.2"/>
<g clip-path="url(#clip0_76_2218)">
<path opacity="0.18" d="M185.458 151.58C200.037 151.58 211.855 139.777 211.855 125.218C211.855 110.659 200.037 98.8563 185.458 98.8563C170.88 98.8563 159.061 110.659 159.061 125.218C159.061 139.777 170.88 151.58 185.458 151.58Z" fill="white"/>
<path opacity="0.28" d="M185.458 144.048C195.871 144.048 204.313 135.618 204.313 125.218C204.313 114.819 195.871 106.388 185.458 106.388C175.045 106.388 166.603 114.819 166.603 125.218C166.603 135.618 175.045 144.048 185.458 144.048Z" fill="white"/>
<path opacity="0.9" d="M368.727 113.92H235.989C233.073 113.92 230.71 116.281 230.71 119.193C230.71 122.104 233.073 124.465 235.989 124.465H368.727C371.642 124.465 374.006 122.104 374.006 119.193C374.006 116.281 371.642 113.92 368.727 113.92Z" fill="white"/>
<path opacity="0.5" d="M324.984 132.75H234.481C232.398 132.75 230.71 134.436 230.71 136.516C230.71 138.596 232.398 140.282 234.481 140.282H324.984C327.066 140.282 328.755 138.596 328.755 136.516C328.755 134.436 327.066 132.75 324.984 132.75Z" fill="white"/>
<path opacity="0.12" d="M257.527 167.463H99.0699C94.208 167.463 90.2667 172.521 90.2667 178.76V231.484C90.2667 237.724 94.208 242.782 99.0699 242.782H257.527C262.389 242.782 266.33 237.724 266.33 231.484V178.76C266.33 172.521 262.389 167.463 257.527 167.463Z" fill="white"/>
<path opacity="0.12" d="M451.035 169.066H292.578C287.716 169.066 283.775 174.124 283.775 180.364V233.087C283.775 239.327 287.716 244.385 292.578 244.385H451.035C455.897 244.385 459.838 239.327 459.838 233.087V180.364C459.838 174.124 455.897 169.066 451.035 169.066Z" fill="white"/>
<path opacity="0.25" d="M144.376 184.375H110.487C107.367 184.375 104.838 186.895 104.838 190.004V223.775C104.838 226.884 107.367 229.404 110.487 229.404H144.376C147.495 229.404 150.024 226.884 150.024 223.775V190.004C150.024 186.895 147.495 184.375 144.376 184.375Z" fill="white"/>
<path opacity="0.25" d="M337.884 185.979H303.994C300.875 185.979 298.346 188.498 298.346 191.607V225.378C298.346 228.487 300.875 231.007 303.994 231.007H337.884C341.003 231.007 343.532 228.487 343.532 225.378V191.607C343.532 188.498 341.003 185.979 337.884 185.979Z" fill="white"/>
<path opacity="0.8" d="M215.114 195.036H160.515C159.121 195.036 157.992 196.85 157.992 199.088C157.992 201.327 159.121 203.141 160.515 203.141H215.114C216.507 203.141 217.637 201.327 217.637 199.088C217.637 196.85 216.507 195.036 215.114 195.036Z" fill="white"/>
<path opacity="0.8" d="M408.622 196.639H354.023C352.629 196.639 351.5 198.454 351.5 200.692C351.5 202.93 352.629 204.744 354.023 204.744H408.622C410.015 204.744 411.145 202.93 411.145 200.692C411.145 198.454 410.015 196.639 408.622 196.639Z" fill="white"/>
<path opacity="0.5" d="M229.363 210.345H159.822C158.811 210.345 157.992 211.757 157.992 213.497C157.992 215.238 158.811 216.649 159.822 216.649H229.363C230.374 216.649 231.193 215.238 231.193 213.497C231.193 211.757 230.374 210.345 229.363 210.345Z" fill="white"/>
<path opacity="0.5" d="M422.871 211.949H353.33C352.319 211.949 351.5 213.36 351.5 215.101C351.5 216.842 352.319 218.253 353.33 218.253H422.871C423.882 218.253 424.701 216.842 424.701 215.101C424.701 213.36 423.882 211.949 422.871 211.949Z" fill="white"/>
<path opacity="0.12" d="M257.527 257.519H99.0699C94.208 257.519 90.2667 262.577 90.2667 268.817V321.541C90.2667 327.78 94.208 332.838 99.0699 332.838H257.527C262.389 332.838 266.33 327.78 266.33 321.541V268.817C266.33 262.577 262.389 257.519 257.527 257.519Z" fill="white"/>
<path opacity="0.12" d="M451.035 259.122H292.578C287.716 259.122 283.775 264.18 283.775 270.42V323.144C283.775 329.383 287.716 334.442 292.578 334.442H451.035C455.897 334.442 459.838 329.383 459.838 323.144V270.42C459.838 264.18 455.897 259.122 451.035 259.122Z" fill="white"/>
<path opacity="0.25" d="M144.376 274.432H110.487C107.367 274.432 104.838 276.952 104.838 280.06V313.832C104.838 316.94 107.367 319.46 110.487 319.46H144.376C147.495 319.46 150.024 316.94 150.024 313.832V280.06C150.024 276.952 147.495 274.432 144.376 274.432Z" fill="white"/>
<path opacity="0.25" d="M337.884 276.035H303.994C300.875 276.035 298.346 278.555 298.346 281.664V315.435C298.346 318.543 300.875 321.063 303.994 321.063H337.884C341.003 321.063 343.532 318.543 343.532 315.435V281.664C343.532 278.555 341.003 276.035 337.884 276.035Z" fill="white"/>
<path opacity="0.8" d="M215.114 285.093H160.515C159.121 285.093 157.992 286.907 157.992 289.145C157.992 291.383 159.121 293.198 160.515 293.198H215.114C216.507 293.198 217.637 291.383 217.637 289.145C217.637 286.907 216.507 285.093 215.114 285.093Z" fill="white"/>
<path opacity="0.8" d="M408.622 286.696H354.023C352.629 286.696 351.5 288.51 351.5 290.748C351.5 292.987 352.629 294.801 354.023 294.801H408.622C410.015 294.801 411.145 292.987 411.145 290.748C411.145 288.51 410.015 286.696 408.622 286.696Z" fill="white"/>
<path opacity="0.5" d="M229.363 300.402H159.822C158.811 300.402 157.992 301.813 157.992 303.554C157.992 305.295 158.811 306.706 159.822 306.706H229.363C230.374 306.706 231.193 305.295 231.193 303.554C231.193 301.813 230.374 300.402 229.363 300.402Z" fill="white"/>
<path opacity="0.5" d="M422.871 302.005H353.33C352.319 302.005 351.5 303.417 351.5 305.157C351.5 306.898 352.319 308.309 353.33 308.309H422.871C423.882 308.309 424.701 306.898 424.701 305.157C424.701 303.417 423.882 302.005 422.871 302.005Z" fill="white"/>
</g>
<g opacity="0.75">
<path opacity="0.45" d="M70.9742 51.8551H67.4475C66.7171 51.8551 66.125 52.4472 66.125 53.1776V56.7043C66.125 57.4347 66.7171 58.0268 67.4475 58.0268H70.9742C71.7046 58.0268 72.2967 57.4347 72.2967 56.7043V53.1776C72.2967 52.4472 71.7046 51.8551 70.9742 51.8551Z" fill="white"/>
<path opacity="0.35" d="M109.327 78.3052H106.682C106.195 78.3052 105.8 78.6999 105.8 79.1868V81.8318C105.8 82.3188 106.195 82.7135 106.682 82.7135H109.327C109.814 82.7135 110.208 82.3188 110.208 81.8318V79.1868C110.208 78.6999 109.814 78.3052 109.327 78.3052Z" fill="white"/>
<path opacity="0.6" d="M149.883 43.0385H146.357C145.87 43.0385 145.475 43.4332 145.475 43.9201V47.4468C145.475 47.9337 145.87 48.3285 146.357 48.3285H149.883C150.37 48.3285 150.765 47.9337 150.765 47.4468V43.9201C150.765 43.4332 150.37 43.0385 149.883 43.0385Z" fill="white"/>
<path opacity="0.45" d="M242.458 38.6301H238.932C238.445 38.6301 238.05 39.0249 238.05 39.5118V43.0385C238.05 43.5254 238.445 43.9201 238.932 43.9201H242.458C242.945 43.9201 243.34 43.5254 243.34 43.0385V39.5118C243.34 39.0249 242.945 38.6301 242.458 38.6301Z" fill="white"/>
<path opacity="0.4" d="M276.843 65.0801H274.198C273.711 65.0801 273.317 65.4748 273.317 65.9617V68.6067C273.317 69.0937 273.711 69.4884 274.198 69.4884H276.843C277.33 69.4884 277.725 69.0937 277.725 68.6067V65.9617C277.725 65.4748 277.33 65.0801 276.843 65.0801Z" fill="white"/>
<path opacity="0.6" d="M330.625 43.0385H327.098C326.611 43.0385 326.217 43.4332 326.217 43.9201V47.4468C326.217 47.9337 326.611 48.3285 327.098 48.3285H330.625C331.112 48.3285 331.507 47.9337 331.507 47.4468V43.9201C331.507 43.4332 331.112 43.0385 330.625 43.0385Z" fill="white"/>
<path opacity="0.45" d="M432.017 56.2634H428.49C428.003 56.2634 427.608 56.6582 427.608 57.1451V60.6718C427.608 61.1587 428.003 61.5534 428.49 61.5534H432.017C432.504 61.5534 432.898 61.1587 432.898 60.6718V57.1451C432.898 56.6582 432.504 56.2634 432.017 56.2634Z" fill="white"/>
<path opacity="0.35" d="M470.81 82.7135H468.165C467.678 82.7135 467.283 83.1082 467.283 83.5952V86.2402C467.283 86.7271 467.678 87.1218 468.165 87.1218H470.81C471.297 87.1218 471.692 86.7271 471.692 86.2402V83.5952C471.692 83.1082 471.297 82.7135 470.81 82.7135Z" fill="white"/>
<path opacity="0.35" d="M79.9154 119.097C64.5247 104.764 81.8748 92.5877 93.2277 104.423" stroke="white" stroke-width="4.40833" stroke-linecap="round" stroke-linejoin="round"/>
<path opacity="0.35" d="M246.867 82.7134C255.683 66.8434 271.553 79.1868 264.5 92.4118" stroke="white" stroke-width="4.40833" stroke-linecap="round" stroke-linejoin="round"/>
<path opacity="0.35" d="M401.158 91.5301C390.578 77.4235 378.235 87.1218 385.288 100.347" stroke="white" stroke-width="4.40833" stroke-linecap="round" stroke-linejoin="round"/>
<path opacity="0.35" d="M449.65 104.755C459.348 88.0035 474.337 101.229 467.283 114.454" stroke="white" stroke-width="4.40833" stroke-linecap="round" stroke-linejoin="round"/>
<g opacity="0.55">
<path d="M91.8001 301.088H88.2734C87.7865 301.088 87.3917 301.483 87.3917 301.97V305.497C87.3917 305.984 87.7865 306.378 88.2734 306.378H91.8001C92.287 306.378 92.6817 305.984 92.6817 305.497V301.97C92.6817 301.483 92.287 301.088 91.8001 301.088Z" fill="white"/>
<path d="M143.818 314.313H141.173C140.686 314.313 140.292 314.708 140.292 315.195V317.84C140.292 318.327 140.686 318.722 141.173 318.722H143.818C144.305 318.722 144.7 318.327 144.7 317.84V315.195C144.7 314.708 144.305 314.313 143.818 314.313Z" fill="white"/>
<path d="M351.892 301.088H348.365C347.878 301.088 347.483 301.483 347.483 301.97V305.497C347.483 305.984 347.878 306.378 348.365 306.378H351.892C352.379 306.378 352.773 305.984 352.773 305.497V301.97C352.773 301.483 352.379 301.088 351.892 301.088Z" fill="white"/>
<path d="M443.585 314.313H440.94C440.453 314.313 440.058 314.708 440.058 315.195V317.84C440.058 318.327 440.453 318.722 440.94 318.722H443.585C444.072 318.722 444.467 318.327 444.467 317.84V315.195C444.467 314.708 444.072 314.313 443.585 314.313Z" fill="white"/>
</g>
</g>
<defs>
<clipPath id="clip0_76_2218">
<rect width="370.525" height="236.775" fill="white" transform="translate(89.475 97.9683)"/>
</clipPath>
</defs>
</svg>
